HIERARCHY
ROOT Hips
{
	OFFSET 0.00000 0.00000 0.00000
	CHANNELS 6 Xposition Yposition Zposition Zrotation Yrotation Xrotation 
	JOINT LHipJoint
	{
		OFFSET 0 0 0
		CHANNELS 3 Zrotation Yrotation Xrotation
		JOINT LeftUpLeg
		{
			OFFSET 1.56857 -1.73443 1.15205
			CHANNELS 3 Zrotation Yrotation Xrotation
			JOINT LeftLeg
			{
				OFFSET 2.39362 -6.57643 0.00000
				CHANNELS 3 Zrotation Yrotation Xrotation
				JOINT LeftFoot
				{
					OFFSET 2.50952 -6.89485 0.00000
					CHANNELS 3 Zrotation Yrotation Xrotation
					JOINT LeftToeBase
					{
						OFFSET 0.17171 -0.47178 1.88682
						CHANNELS 3 Zrotation Yrotation Xrotation
						End Site
						{
							OFFSET 0.00000 -0.00000 0.98146
						}
					}
				}
			}
		}
	}
	JOINT RHipJoint
	{
		OFFSET 0 0 0
		CHANNELS 3 Zrotation Yrotation Xrotation
		JOINT RightUpLeg
		{
			OFFSET -1.28153 -1.73443 1.15205
			CHANNELS 3 Zrotation Yrotation Xrotation
			JOINT RightLeg
			{
				OFFSET -2.26861 -6.23296 0.00000
				CHANNELS 3 Zrotation Yrotation Xrotation
				JOINT RightFoot
				{
					OFFSET -2.54143 -6.98254 0.00000
					CHANNELS 3 Zrotation Yrotation Xrotation
					JOINT RightToeBase
					{
						OFFSET -0.23309 -0.64041 1.93119
						CHANNELS 3 Zrotation Yrotation Xrotation
						End Site
						{
							OFFSET -0.00000 -0.00000 1.02013
						}
					}
				}
			}
		}
	}
	JOINT LowerBack
	{
		OFFSET 0 0 0
		CHANNELS 3 Zrotation Yrotation Xrotation
		JOINT Spine
		{
			OFFSET -0.07096 2.10460 -0.27878
			CHANNELS 3 Zrotation Yrotation Xrotation
			JOINT Spine1
			{
				OFFSET -0.00826 2.13662 -0.08279
				CHANNELS 3 Zrotation Yrotation Xrotation
				JOINT Neck
				{
					OFFSET 0 0 0
					CHANNELS 3 Zrotation Yrotation Xrotation
					JOINT Neck1
					{
						OFFSET 0.03239 1.77799 0.24435
						CHANNELS 3 Zrotation Yrotation Xrotation
						JOINT Head
						{
							OFFSET 0.01026 1.74194 -0.49664
							CHANNELS 3 Zrotation Yrotation Xrotation
							End Site
							{
								OFFSET 0.00170 1.83057 -0.19653
							}
						}
					}
				}
				JOINT LeftShoulder
				{
					OFFSET 0 0 0
					CHANNELS 3 Zrotation Yrotation Xrotation
					JOINT LeftArm
					{
						OFFSET 3.19178 1.35907 -0.31412
						CHANNELS 3 Zrotation Yrotation Xrotation
						JOINT LeftForeArm
						{
							OFFSET 4.85247 -0.00000 -0.00000
							CHANNELS 3 Zrotation Yrotation Xrotation
							JOINT LeftHand
							{
								OFFSET 3.55584 -0.00000 0.00000
								CHANNELS 3 Zrotation Yrotation Xrotation
								JOINT LeftFingerBase
								{
									OFFSET 0 0 0
									CHANNELS 3 Zrotation Yrotation Xrotation
									JOINT LeftHandIndex1
									{
										OFFSET 0.69320 -0.00000 0.00000
										CHANNELS 3 Zrotation Yrotation Xrotation
										End Site
										{
											OFFSET 0.55888 -0.00000 0.00000
										}
									}
								}
								JOINT LThumb
								{
									OFFSET 0 0 0
									CHANNELS 3 Zrotation Yrotation Xrotation
									End Site
									{
										OFFSET 0.56741 -0.00000 0.56741
									}
								}
							}
						}
					}
				}
				JOINT RightShoulder
				{
					OFFSET 0 0 0
					CHANNELS 3 Zrotation Yrotation Xrotation
					JOINT RightArm
					{
						OFFSET -3.28999 1.24191 -0.26899
						CHANNELS 3 Zrotation Yrotation Xrotation
						JOINT RightForeArm
						{
							OFFSET -4.64462 -0.00000 0.00000
							CHANNELS 3 Zrotation Yrotation Xrotation
							JOINT RightHand
							{
								OFFSET -3.40703 -0.00000 0.00000
								CHANNELS 3 Zrotation Yrotation Xrotation
								JOINT RightFingerBase
								{
									OFFSET 0 0 0
									CHANNELS 3 Zrotation Yrotation Xrotation
									JOINT RightHandIndex1
									{
										OFFSET -0.61958 -0.00000 0.00000
										CHANNELS 3 Zrotation Yrotation Xrotation
										End Site
										{
											OFFSET -0.49952 -0.00000 0.00000
										}
									}
								}
								JOINT RThumb
								{
									OFFSET 0 0 0
									CHANNELS 3 Zrotation Yrotation Xrotation
									End Site
									{
										OFFSET -0.50715 -0.00000 0.50715
									}
								}
							}
						}
					}
				}
			}
		}
	}
}
MOTION
Frames: 15
Frame Time: .0083333
-28.577 17.097 0.9666 0 0 0 0 0 0 -21 0 0 0 0 0 0 0 0 0 0 0 0 0 0 21 0 0 0 0 0 0 0 0 0 0 0 0 0 0 0 0 0 0 0 0 0 0 -16 0 0 21 0 0 11 0 0 0 -8 0 0 0 0 0 0 0 0 0 0 0 0 0 0 0 0 0 0 0 0 8 0 0 0 0 0 0 0 0 0 0 0 0 0 0 0 0 0
-28.5770 17.0970 0.9666 9.9768 83.7596 12.9013 0.0000 0.0000 0.0000 -13.4746 3.8909 1.2382 0.4165 4.1426 11.4781 0.8327 3.3057 -18.7396 0.5691 -4.8315 -13.4286 0.0000 0.0000 0.0000 13.2958 -9.8075 5.6744 -0.0161 -0.8199 2.2535 -0.7685 -1.8252 -17.3173 -0.2775 -3.3881 9.3613 -2.5804 1.3341 6.6309 -0.0536 1.6263 1.5236 1.2547 0.8360 -2.2140 3.2289 2.9888 -21.3661 -0.9988 3.6949 26.0933 -0.2839 1.9315 12.2519 0.0000 -0.0000 0.0000 -86.6733 -3.7982 47.2259 13.9529 -22.6673 -2.8099 -0.0000 -0.0000 10.6330 18.3463 -24.2860 -7.7667 -7.1250 0.0000 -0.0000 -6.7609 4.7048 6.2280 0.0000 -0.0000 0.0000 87.5810 1.9561 35.4060 -15.6241 25.0084 -3.4855 0.0000 0.0000 10.6022 -11.1122 -29.0650 5.4506 7.1250 -0.0000 -0.0000 22.0365 -58.1205 -7.3050
-28.5785 17.0959 0.9676 8.9011 83.7388 11.8527 0.0000 0.0000 0.0000 -13.3144 3.9264 1.2095 0.4155 4.1378 11.4646 0.8290 3.3218 -18.7109 0.5532 -4.7645 -13.2382 0.0000 0.0000 0.0000 13.4014 -9.8785 5.5819 -0.0168 -0.8370 2.3004 -0.7725 -1.6014 -17.2570 -0.2721 -3.3553 9.2696 -2.4758 1.3441 6.5665 -0.0408 1.6492 1.5393 1.2091 0.8462 -2.1604 3.1594 2.9385 -21.2722 -0.9094 3.6192 25.9791 -0.2535 1.9028 12.1827 -0.0000 0.0000 0.0000 -86.6548 -3.8940 47.1514 13.9603 -22.6779 -2.8128 -0.0000 -0.0000 10.5162 17.8742 -24.7311 -7.6839 -7.1250 0.0000 -0.0000 -7.0870 4.3233 6.5842 -0.0000 0.0000 0.0000 87.6177 2.0117 35.3333 -15.5930 24.9658 -3.4724 0.0000 0.0000 10.6232 -11.0399 -28.9389 5.3930 7.1250 -0.0000 -0.0000 22.0190 -57.9886 -7.2280
-28.5783 17.0950 0.9666 9.8099 83.7031 12.7977 0.0000 0.0000 0.0000 -13.4519 3.9198 1.1836 0.4142 4.1312 11.4460 0.8275 3.3422 -18.7075 0.4544 -4.3244 -11.9910 0.0000 0.0000 0.0000 13.2779 -9.8306 5.5712 -0.0163 -0.8239 2.2643 -0.7741 -1.6009 -17.2732 -0.2365 -3.1298 8.6404 -2.5842 1.3378 6.4579 -0.0681 1.6368 1.5657 1.2457 0.8394 -2.0744 3.1515 2.9303 -21.2548 -0.9503 3.6203 25.9240 -0.2682 1.8964 12.1583 -0.0000 0.0000 0.0000 -86.6363 -4.0165 47.2713 13.9939 -22.7260 -2.8258 -0.0000 -0.0000 10.1961 17.6456 -24.7438 -7.5839 -7.1250 0.0000 -0.0000 -7.2280 4.3454 6.7143 -0.0000 0.0000 0.0000 87.6017 2.1089 35.3572 -15.5688 24.9325 -3.4622 0.0000 0.0000 10.5675 -10.9300 -28.8977 5.3315 7.1250 -0.0000 -0.0000 22.1013 -57.9271 -7.2237
-28.5787 17.0962 0.9651 9.6229 83.7104 12.6257 0.0000 0.0000 0.0000 -13.4442 3.8795 1.1653 0.4170 4.1451 11.4852 0.8296 3.3638 -18.7404 0.5543 -4.7693 -13.2518 0.0000 0.0000 0.0000 13.3618 -9.6589 5.6005 -0.0163 -0.8241 2.2649 -0.7672 -1.8422 -17.3109 -0.2043 -2.9107 8.0301 -2.5729 1.3221 6.4505 -0.0519 1.6172 1.5659 1.2579 0.8295 -2.0693 3.1954 2.9347 -21.2863 -1.0336 3.6339 25.9202 -0.3043 1.8949 12.1662 0.0000 -0.0000 0.0000 -86.6400 -4.0737 47.3798 14.0582 -22.8178 -2.8506 -0.0000 -0.0000 9.9627 17.2849 -24.4070 -7.3270 -7.1250 0.0000 -0.0000 -7.4232 4.7429 6.8429 0.0000 -0.0000 0.0000 87.5416 2.1191 35.5618 -15.6144 24.9950 -3.4814 0.0000 0.0000 10.2912 -11.1147 -28.8419 5.4138 7.1250 -0.0000 -0.0000 21.8730 -57.9152 -7.1379
-28.5806 17.0982 0.9643 8.5276 83.6777 11.5040 0.0000 0.0000 0.0000 -13.3532 3.7655 1.3034 0.4105 4.1130 11.3948 0.8275 3.5257 -18.8097 0.5666 -4.8211 -13.3991 0.0000 0.0000 0.0000 13.5485 -9.4866 5.6489 -0.0167 -0.8339 2.2918 -0.7673 -1.9658 -17.3709 -0.2077 -2.9346 8.0966 -2.4530 1.3304 6.4984 -0.0322 1.6356 1.5808 1.2084 0.8383 -2.0788 3.1845 2.9285 -21.3669 -0.9965 3.6159 25.9756 -0.2900 1.8904 12.2026 0.0000 -0.0000 0.0000 -86.6686 -4.1597 47.2479 14.0734 -22.8395 -2.8565 -0.0000 -0.0000 9.8671 16.8180 -24.3519 -7.1044 -7.1250 0.0000 -0.0000 -7.7061 4.8678 7.0902 0.0000 -0.0000 0.0000 87.5188 2.0799 35.7060 -15.6921 25.1014 -3.5143 0.0000 0.0000 10.0572 -11.3565 -28.8340 5.5325 7.1250 -0.0000 -0.0000 21.6211 -57.9602 -7.0742
-28.5810 17.0983 0.9637 9.1720 83.6402 12.0838 0.0000 0.0000 0.0000 -13.4925 3.6899 1.5007 0.3987 4.0542 11.2291 0.8201 3.6822 -18.8248 0.5569 -4.7800 -13.2822 0.0000 0.0000 0.0000 13.4129 -9.5983 5.7041 -0.0164 -0.8268 2.2724 -0.7634 -1.8913 -17.2931 -0.2194 -3.0154 8.3216 -2.5389 1.3359 6.5076 -0.0503 1.6378 1.6129 1.2380 0.8395 -2.0527 3.1806 2.9214 -21.4067 -1.0065 3.6137 26.0710 -0.2921 1.8884 12.2481 0.0000 0.0000 0.0000 -86.6999 -4.2008 47.1480 14.0732 -22.8393 -2.8565 -0.0000 -0.0000 9.8807 16.7540 -24.4665 -7.1070 -7.1250 0.0000 -0.0000 -7.7538 4.7609 7.1506 0.0000 0.0000 0.0000 87.4955 2.0485 35.7276 -15.7315 25.1552 -3.5310 0.0000 0.0000 10.0174 -11.4038 -28.8911 5.5661 7.1250 -0.0000 -0.0000 21.6135 -58.0232 -7.1047
-28.5810 17.0973 0.9630 9.9396 83.6874 12.7851 0.0000 0.0000 0.0000 -13.5425 3.8303 1.4746 0.4036 4.0789 11.2986 0.8179 3.5528 -18.7278 0.5380 -4.6999 -13.0545 0.0000 0.0000 0.0000 13.2658 -9.7940 5.7732 -0.0157 -0.8082 2.2212 -0.7538 -1.8190 -17.1555 -0.2190 -3.0128 8.3145 -2.6261 1.2989 6.5425 -0.0566 1.5824 1.6278 1.2846 0.8124 -2.0566 3.2138 2.9348 -21.4260 -1.0570 3.6394 26.1435 -0.3115 1.8970 12.2831 0.0000 0.0000 0.0000 -86.7047 -4.1688 47.1026 14.1038 -22.8829 -2.8683 -0.0000 -0.0000 9.9148 16.7715 -24.4517 -7.1108 -7.1250 0.0000 -0.0000 -7.7419 4.7734 7.1376 0.0000 0.0000 0.0000 87.4814 2.0326 35.8214 -15.7358 25.1611 -3.5329 0.0000 0.0000 9.9626 -11.7006 -28.7524 5.6891 7.1250 -0.0000 -0.0000 21.2116 -57.9588 -6.9313
-28.5830 17.0959 0.9632 9.1785 83.7352 12.0111 0.0000 0.0000 0.0000 -13.3828 3.9330 1.3652 0.4134 4.1273 11.4351 0.8267 3.3690 -18.7140 0.5104 -4.5793 -12.7124 0.0000 0.0000 0.0000 13.3853 -9.7700 5.7915 -0.0156 -0.8057 2.2145 -0.7611 -1.8014 -17.2266 -0.2278 -3.0720 8.4794 -2.5685 1.2557 6.5827 -0.0035 1.5282 1.6117 1.3104 0.7856 -2.0933 3.1868 2.9629 -21.3738 -1.0518 3.6887 26.1120 -0.2977 1.9172 12.2607 -0.0000 -0.0000 0.0000 -86.7654 -4.1531 46.9655 14.1018 -22.8801 -2.8676 -0.0000 -0.0000 9.9925 16.5954 -24.4114 -7.0217 -7.1250 0.0000 -0.0000 -7.8472 4.8400 7.2267 -0.0000 -0.0000 0.0000 87.4470 1.9950 35.8946 -15.7151 25.1329 -3.5241 0.0000 0.0000 10.0201 -11.9281 -28.4779 5.7518 7.1250 -0.0000 -0.0000 20.7872 -57.7527 -6.6801
-28.5849 17.0946 0.9634 8.8820 83.7441 11.7629 0.0000 0.0000 0.0000 -13.3953 3.7511 1.3966 0.4084 4.1024 11.3650 0.8311 3.4522 -18.8056 0.5094 -4.5752 -12.7007 0.0000 0.0000 0.0000 13.4969 -9.5591 5.8142 -0.0149 -0.7885 2.1669 -0.7707 -1.9354 -17.3923 -0.2355 -3.1231 8.6215 -2.5170 1.2589 6.5153 -0.0176 1.5376 1.6196 1.2677 0.7894 -2.0463 3.2090 2.9705 -21.3649 -1.0240 3.6793 26.0399 -0.2932 1.9181 12.2302 -0.0000 0.0000 0.0000 -86.7217 -4.2775 47.0954 14.0545 -22.8126 -2.8492 -0.0000 -0.0000 9.9150 16.5040 -24.4361 -6.9878 -7.1250 0.0000 -0.0000 -7.9051 4.8281 7.2828 -0.0000 0.0000 0.0000 87.5011 2.0704 35.5658 -15.6506 25.0446 -3.4967 0.0000 0.0000 10.0662 -11.4724 -28.2698 5.4905 7.1250 -0.0000 -0.0000 21.1081 -57.4622 -6.6397
-28.5844 17.0955 0.9614 9.7891 83.7074 12.6382 0.0000 0.0000 0.0000 -13.5924 3.6154 1.5638 0.3973 4.0473 11.2096 0.8304 3.5632 -18.8608 0.5014 -4.5394 -12.5994 0.0000 0.0000 0.0000 13.3715 -9.5245 5.8795 -0.0145 -0.7762 2.1331 -0.7679 -2.0147 -17.4006 -0.2151 -2.9859 8.2396 -2.5590 1.2982 6.5356 -0.0941 1.5847 1.6124 1.2081 0.8134 -2.0659 3.2709 2.9634 -21.3100 -1.0001 3.6411 25.9992 -0.3020 1.9109 12.2033 -0.0000 0.0000 0.0000 -86.5967 -4.3338 47.4790 14.0321 -22.7806 -2.8405 -0.0000 -0.0000 9.6716 16.5129 -24.3087 -6.9578 -7.1250 0.0000 -0.0000 -7.8907 4.9560 7.2501 -0.0000 0.0000 0.0000 87.5770 2.0207 35.5442 -15.6279 25.0136 -3.4871 0.0000 0.0000 10.4099 -11.4339 -29.0209 5.6038 7.1250 -0.0000 -0.0000 21.6760 -58.1496 -7.1933
-28.5853 17.0951 0.9610 10.2546 83.6177 13.0137 0.0000 0.0000 0.0000 -13.6162 3.8398 1.5712 0.4008 4.0648 11.2590 0.8289 3.4310 -18.7708 0.5079 -4.5684 -12.6816 0.0000 0.0000 0.0000 13.2677 -9.5195 5.9541 -0.0148 -0.7846 2.1563 -0.7658 -2.0216 -17.3813 -0.2028 -2.8995 7.9990 -2.6262 1.3357 6.5650 -0.1102 1.6311 1.6687 1.2253 0.8364 -2.0275 3.2918 2.9606 -21.3590 -1.0463 3.6413 26.0105 -0.3222 1.9063 12.2190 0.0000 0.0000 0.0000 -86.5855 -4.4103 47.6287 14.0327 -22.7814 -2.8408 -0.0000 -0.0000 9.5729 16.6187 -24.1852 -6.9714 -7.1250 0.0000 -0.0000 -7.8169 5.0659 7.1646 0.0000 0.0000 0.0000 87.5751 2.0569 35.4135 -15.5660 24.9286 -3.4610 0.0000 0.0000 10.6997 -11.4183 -29.0852 5.6072 7.1250 -0.0000 -0.0000 21.7385 -58.2056 -7.2450
-28.5883 17.0917 0.9618 9.9747 83.5860 12.7690 0.0000 0.0000 0.0000 -13.5130 4.0064 1.3838 0.4113 4.1168 11.4054 0.8256 3.3373 -18.6856 0.5425 -4.7190 -13.1089 0.0000 0.0000 0.0000 13.3110 -9.4499 5.9336 -0.0145 -0.7767 2.1346 -0.7643 -1.9796 -17.3447 -0.2362 -3.1276 8.6342 -2.6368 1.3375 6.4696 -0.0811 1.6372 1.7054 1.2635 0.8382 -1.9379 3.2397 2.9546 -21.3970 -1.0528 3.6506 26.0062 -0.3140 1.9035 12.2240 -0.0000 0.0000 0.0000 -86.6472 -4.4977 47.5037 14.0083 -22.7466 -2.8313 -0.0000 -0.0000 9.7007 16.8648 -24.3382 -7.1214 -7.1250 0.0000 -0.0000 -7.6763 4.8749 7.0612 -0.0000 0.0000 0.0000 87.5226 2.0310 35.6222 -15.6414 25.0321 -3.4929 0.0000 0.0000 10.6506 -11.6560 -29.0153 5.7139 7.1250 -0.0000 -0.0000 21.4448 -58.1928 -7.1344
-28.5898 17.0884 0.9611 10.0332 83.5996 12.8949 0.0000 0.0000 0.0000 -13.5594 3.8444 1.3940 0.4060 4.0907 11.3319 0.8220 3.5181 -18.7506 0.5473 -4.7393 -13.1664 0.0000 0.0000 0.0000 13.2544 -9.5880 5.8072 -0.0147 -0.7816 2.1481 -0.7630 -1.7608 -17.2277 -0.2639 -3.3048 9.1286 -2.6302 1.3293 6.3974 -0.0906 1.6273 1.6714 1.2520 0.8331 -1.9318 3.1611 2.9417 -21.2934 -0.9588 3.6337 25.9350 -0.2702 1.9015 12.1710 0.0000 -0.0000 0.0000 -86.6626 -4.4688 47.3779 13.9765 -22.7012 -2.8190 -0.0000 -0.0000 9.8609 17.0789 -24.4764 -7.2544 -7.1250 0.0000 -0.0000 -7.5549 4.7029 6.9722 0.0000 -0.0000 0.0000 87.5152 1.9319 35.5723 -15.6825 25.0883 -3.5103 0.0000 0.0000 10.4080 -11.6492 -28.4059 5.6014 7.1250 -0.0000 -0.0000 21.0219 -57.6261 -6.6951
-28.5905 17.0873 0.9596 10.2351 83.5972 13.0980 0.0000 0.0000 0.0000 -13.6443 3.7031 1.5088 0.3981 4.0512 11.2209 0.8131 3.7176 -18.7740 0.5499 -4.7507 -13.1988 0.0000 0.0000 0.0000 13.1887 -9.7039 5.7360 -0.0156 -0.8062 2.2156 -0.7556 -1.7059 -17.1223 -0.2393 -3.1481 8.6915 -2.6249 1.3364 6.4005 -0.1173 1.6360 1.6569 1.2205 0.8377 -1.9481 3.1276 2.9354 -21.2774 -0.8840 3.6138 25.9172 -0.2402 1.8995 12.1580 -0.0000 0.0000 0.0000 -86.6533 -4.4296 47.2509 13.9658 -22.6858 -2.8149 -0.0000 -0.0000 10.0902 17.2343 -24.5406 -7.3416 -7.1250 0.0000 -0.0000 -7.4643 4.6144 6.8996 -0.0000 0.0000 0.0000 87.5451 1.8748 35.4948 -15.6990 25.1109 -3.5173 0.0000 0.0000 10.5249 -11.4010 -28.5703 5.5084 7.1250 -0.0000 -0.0000 21.3893 -57.7257 -6.8714
